<svg width="40" height="40" viewBox="0 0 40 40" fill="none" xmlns="http://www.w3.org/2000/svg">
<path d="M23.5 22H22.71L22.43 21.73C23.4439 20.554 24.0011 19.0527 24 17.5C24 16.2144 23.6188 14.9577 22.9046 13.8888C22.1903 12.8199 21.1752 11.9868 19.9874 11.4948C18.7997 11.0028 17.4928 10.8741 16.2319 11.1249C14.971 11.3757 13.8128 11.9948 12.9038 12.9038C11.9948 13.8128 11.3757 14.971 11.1249 16.2319C10.8741 17.4928 11.0028 18.7997 11.4948 19.9874C11.9868 21.1752 12.8199 22.1903 13.8888 22.9046C14.9577 23.6188 16.2144 24 17.5 24C19.11 24 20.59 23.41 21.73 22.43L22 22.71V23.5L27 28.49L28.49 27L23.5 22ZM17.5 22C15.01 22 13 19.99 13 17.5C13 15.01 15.01 13 17.5 13C19.99 13 22 15.01 22 17.5C22 19.99 19.99 22 17.5 22Z" fill="#254AA0"/>
</svg>
